<?xml version="1.0" encoding="UTF-8" standalone="no"?>
<svg
   xmlns="http://www.w3.org/2000/svg"
   viewBox="0 0 1024 1024"
   width="1024"
   height="1024">
  <defs>
    <linearGradient
       id="linear-gradient"
       x1="160.22"
       y1="34.52"
       x2="175.86"
       y2="7.4299998"
       gradientUnits="userSpaceOnUse"
       gradientTransform="matrix(38.6246928,0,0,38.6246928,-3224.71616,-646.7408)">
      <stop offset="0%" stop-color="#00aaf2" />
      <stop offset="1" stop-color="#1d81d6" />
    </linearGradient>
    <!-- Subtle text backdrop for readability -->
    <radialGradient id="text-backdrop" cx="50%" cy="50%" r="25%">
      <stop offset="0%" stop-color="#000000" stop-opacity="0.4" />
      <stop offset="100%" stop-color="#000000" stop-opacity="0" />
    </radialGradient>
  </defs>

  <!--
    ============================================================
    Mifos Initiative Project Icon Template (1024x1024)
    
    HOW TO USE:
    Replace the "PROJECT" text in the <text> element below
    with your project name or abbreviation.
    
    Colors (Mifos brand palette):
      - Dark Blue:     #0070c6  (left facet)
      - Blue Gradient: #00aaf2 → #1d81d6  (right facet)  
      - Light Green:   #7dd432  (top facet)
      - Green:         #00b441  (bottom facet)
    ============================================================
  -->

  <!-- Mifos icon - faithful reproduction of original geometry, scaled to 1024x1024 -->
  <g transform="matrix(38.6246928,0,0,38.6246928,-3224.71616,-646.7408)">
    <!-- Dark Blue (left facet) -->
    <path
       style="fill:#0070c6;stroke-width:0.58511448"
       d="M 83.488462,40.491103 V 19.596665 c 0.275004,0 0.368623,0.198939 0.497348,0.327664 l 9.601729,9.578324 c 0.269152,0.263302 0.555858,0.438836 0.111171,0.871821 -3.32345,3.276641 -6.623496,6.588389 -9.946946,9.888435 -0.03511,0.05851 -0.09947,0.09947 -0.263302,0.228194 z" />

    <!-- Light Green (top facet) -->
    <path
       style="fill:#7dd432;stroke-width:0.58511448"
       d="m 86.209245,16.747157 h 20.947095 c 0.0468,0.239897 -0.15213,0.315962 -0.2633,0.421282 l -9.683643,9.689497 c -0.269152,0.269152 -0.450538,0.544156 -0.883522,0.111171 -3.3176,-3.346855 -6.664455,-6.676156 -9.999607,-10.011309 a 1.3574656,1.3574656 0 0 1 -0.117023,-0.210641 z" />

    <!-- Green (bottom facet) -->
    <path
       style="fill:#00b441;stroke-width:0.58511448"
       d="m 86.168287,43.252844 c 0.497347,-0.520752 0.982992,-1.053206 1.486191,-1.562256 q 4.288889,-4.29474 8.583629,-8.577778 c 0.222344,-0.222344 0.386176,-0.585115 0.81331,-0.157981 q 5.108053,5.166561 10.245353,10.298015 z" />

    <!-- Blue Gradient (right facet) -->
    <path
       style="fill:url(#linear-gradient);stroke-width:0.58511448"
       d="m 103.18927,26.21431 c -1.17023,1.170229 -2.37557,2.340458 -3.580903,3.510687 -0.263302,0.251599 -0.175534,0.368622 0.02926,0.585114 0.895223,0.86597 1.755343,1.755344 2.662263,2.627164 L 110,40.578871 v -21.15189 z" />
  </g>

  <!-- Semi-transparent backdrop behind text for readability -->
  <ellipse
     cx="512" cy="512"
     rx="200" ry="160"
     fill="url(#text-backdrop)" />

  <!--
    PLACEHOLDER TEXT - Replace "PROJECT" with your project name/abbreviation
    For best results, use short text (1-8 characters) for icon-sized display.
    Adjust font-size as needed for longer/shorter text.
  -->
  <text
     x="512"
     y="512"
     text-anchor="middle"
     dominant-baseline="central"
     font-family="Arial, Helvetica, sans-serif"
     font-size="120"
     font-weight="bold"
     fill="#ffffff"
     letter-spacing="6"
     id="placeholder-text">PROJECT</text>
</svg>